<?xml version="1.0" encoding="UTF-8" standalone="no"?>
<!DOCTYPE svg PUBLIC "-//W3C//DTD SVG 1.1//EN" "http://www.w3.org/Graphics/SVG/1.1/DTD/svg11.dtd">
<svg width="100%" height="100%" viewBox="0 0 408 252" version="1.1" xmlns="http://www.w3.org/2000/svg" xmlns:xlink="http://www.w3.org/1999/xlink" xml:space="preserve" xmlns:serif="http://www.serif.com/" style="fill-rule:evenodd;clip-rule:evenodd;stroke-linejoin:round;stroke-miterlimit:2;">
    <g transform="matrix(1.9785,0,0,1.9785,-50.203497,-162.071814)">
        <g transform="matrix(1,0,0,1,26.674,110.867)">
            <path d="M0.638,0L0.638,-3.487L12.562,-17.925L13.237,-16.462L1.2,-16.462L1.2,-20.288L16.988,-20.288L16.988,-16.838L5.213,-2.362L4.537,-3.863L17.025,-3.863L17.025,0L0.638,0Z" style="fill:rgb(37,25,56);fill-rule:nonzero;"/>
            <path d="M29.925,0.45C27.975,0.45 26.194,-0.013 24.581,-0.938C22.969,-1.862 21.688,-3.125 20.737,-4.725C19.787,-6.325 19.312,-8.137 19.312,-10.163C19.312,-12.213 19.787,-14.031 20.737,-15.619C21.688,-17.206 22.962,-18.456 24.562,-19.369C26.162,-20.281 27.95,-20.738 29.925,-20.738C31.925,-20.738 33.719,-20.281 35.306,-19.369C36.894,-18.456 38.156,-17.206 39.094,-15.619C40.031,-14.031 40.5,-12.213 40.5,-10.163C40.5,-8.113 40.025,-6.287 39.075,-4.688C38.125,-3.087 36.85,-1.831 35.25,-0.919C33.65,-0.006 31.875,0.45 29.925,0.45ZM29.925,-3.487C31.125,-3.488 32.188,-3.775 33.112,-4.35C34.037,-4.925 34.769,-5.719 35.306,-6.731C35.844,-7.744 36.112,-8.888 36.112,-10.163C36.112,-11.438 35.844,-12.575 35.306,-13.575C34.769,-14.575 34.037,-15.363 33.112,-15.938C32.188,-16.512 31.125,-16.8 29.925,-16.8C28.75,-16.8 27.694,-16.512 26.756,-15.938C25.819,-15.363 25.081,-14.575 24.544,-13.575C24.006,-12.575 23.737,-11.438 23.737,-10.163C23.737,-8.888 24.006,-7.744 24.544,-6.731C25.081,-5.719 25.819,-4.925 26.756,-4.35C27.694,-3.775 28.75,-3.488 29.925,-3.487Z" style="fill:rgb(37,25,56);fill-rule:nonzero;"/>
            <path d="M44.625,0L44.625,-20.288L48.675,-20.288L48.675,-16.2L48.3,-16.8C48.75,-18.125 49.475,-19.081 50.475,-19.669C51.475,-20.256 52.675,-20.55 54.075,-20.55L55.312,-20.55L55.312,-16.688L53.55,-16.688C52.15,-16.688 51.019,-16.256 50.156,-15.394C49.294,-14.531 48.862,-13.3 48.862,-11.7L48.862,0L44.625,0Z" style="fill:rgb(37,25,56);fill-rule:nonzero;"/>
            <path d="M67.987,8.25C66.512,8.25 65.15,8.012 63.9,7.538C62.65,7.062 61.575,6.406 60.675,5.569C59.775,4.731 59.1,3.75 58.65,2.625L62.55,1.012C62.9,1.963 63.544,2.75 64.481,3.375C65.419,4 66.575,4.312 67.95,4.312C69.025,4.312 69.987,4.106 70.837,3.694C71.688,3.281 72.362,2.681 72.862,1.894C73.362,1.106 73.612,0.162 73.612,-0.938L73.612,-5.512L74.362,-4.65C73.662,-3.35 72.694,-2.362 71.456,-1.688C70.219,-1.012 68.825,-0.675 67.275,-0.675C65.4,-0.675 63.712,-1.112 62.212,-1.988C60.712,-2.862 59.531,-4.062 58.669,-5.587C57.806,-7.112 57.375,-8.825 57.375,-10.725C57.375,-12.65 57.806,-14.363 58.669,-15.862C59.531,-17.363 60.7,-18.55 62.175,-19.425C63.65,-20.3 65.337,-20.738 67.237,-20.738C68.787,-20.738 70.169,-20.406 71.381,-19.744C72.594,-19.081 73.587,-18.125 74.362,-16.875L73.8,-15.825L73.8,-20.288L77.812,-20.288L77.812,-0.938C77.812,0.812 77.394,2.381 76.556,3.769C75.719,5.156 74.562,6.25 73.087,7.05C71.612,7.85 69.912,8.25 67.987,8.25ZM67.762,-4.612C68.887,-4.612 69.887,-4.881 70.762,-5.419C71.638,-5.956 72.331,-6.681 72.844,-7.594C73.356,-8.506 73.612,-9.538 73.612,-10.688C73.612,-11.838 73.35,-12.875 72.825,-13.8C72.3,-14.725 71.6,-15.456 70.725,-15.994C69.85,-16.531 68.862,-16.8 67.762,-16.8C66.612,-16.8 65.587,-16.531 64.688,-15.994C63.787,-15.456 63.081,-14.731 62.569,-13.819C62.056,-12.906 61.8,-11.863 61.8,-10.688C61.8,-9.562 62.056,-8.538 62.569,-7.613C63.081,-6.688 63.787,-5.956 64.688,-5.419C65.587,-4.881 66.612,-4.612 67.762,-4.612Z" style="fill:rgb(37,25,56);fill-rule:nonzero;"/>
        </g>
        <g>
            <g transform="matrix(1,0,0,1,26.674,155.451)">
                <path d="M7.388,0L0.412,-20.288L4.913,-20.288L10.238,-4.125L8.662,-4.125L14.1,-20.288L17.963,-20.288L23.363,-4.125L21.787,-4.125L27.15,-20.288L31.65,-20.288L24.638,0L20.813,0L15.338,-16.538L16.725,-16.538L11.25,0L7.388,0Z" style="fill:rgb(37,25,56);fill-rule:nonzero;"/>
            </g>
            <g transform="matrix(1,0,0,1,58.361,155.451)">
                <path d="M12.263,0.45C10.312,0.45 8.531,-0.013 6.919,-0.938C5.306,-1.862 4.025,-3.125 3.075,-4.725C2.125,-6.325 1.65,-8.137 1.65,-10.163C1.65,-12.213 2.125,-14.031 3.075,-15.619C4.025,-17.206 5.3,-18.456 6.9,-19.369C8.5,-20.281 10.287,-20.738 12.263,-20.738C14.263,-20.738 16.056,-20.281 17.644,-19.369C19.231,-18.456 20.494,-17.206 21.431,-15.619C22.369,-14.031 22.837,-12.213 22.837,-10.163C22.837,-8.113 22.363,-6.287 21.413,-4.688C20.462,-3.087 19.188,-1.831 17.588,-0.919C15.988,-0.006 14.213,0.45 12.263,0.45ZM12.263,-3.487C13.462,-3.488 14.525,-3.775 15.45,-4.35C16.375,-4.925 17.106,-5.719 17.644,-6.731C18.181,-7.744 18.45,-8.888 18.45,-10.163C18.45,-11.438 18.181,-12.575 17.644,-13.575C17.106,-14.575 16.375,-15.363 15.45,-15.938C14.525,-16.512 13.462,-16.8 12.263,-16.8C11.088,-16.8 10.031,-16.512 9.094,-15.938C8.156,-15.363 7.419,-14.575 6.881,-13.575C6.344,-12.575 6.075,-11.438 6.075,-10.163C6.075,-8.888 6.344,-7.744 6.881,-6.731C7.419,-5.719 8.156,-4.925 9.094,-4.35C10.031,-3.775 11.088,-3.488 12.263,-3.487Z" style="fill:rgb(37,25,56);fill-rule:nonzero;"/>
                <path d="M26.963,0L26.963,-20.288L31.013,-20.288L31.013,-16.312L30.525,-16.838C31.025,-18.113 31.825,-19.081 32.925,-19.744C34.025,-20.406 35.3,-20.738 36.75,-20.738C38.25,-20.738 39.575,-20.413 40.725,-19.762C41.875,-19.112 42.775,-18.213 43.425,-17.062C44.075,-15.913 44.4,-14.588 44.4,-13.088L44.4,0L40.2,0L40.2,-11.963C40.2,-12.987 40.013,-13.856 39.638,-14.569C39.263,-15.281 38.731,-15.831 38.044,-16.219C37.356,-16.606 36.575,-16.8 35.7,-16.8C34.825,-16.8 34.044,-16.606 33.356,-16.219C32.669,-15.831 32.138,-15.275 31.763,-14.55C31.388,-13.825 31.2,-12.962 31.2,-11.963L31.2,0L26.963,0Z" style="fill:rgb(37,25,56);fill-rule:nonzero;"/>
                <path d="M48.938,0L48.938,-20.288L53.175,-20.288L53.175,0L48.938,0ZM48.938,-23.062L48.938,-27.938L53.175,-27.938L53.175,-23.062L48.938,-23.062Z" style="fill:rgb(37,25,56);fill-rule:nonzero;"/>
                <path d="M58.125,0L58.125,-20.288L62.175,-20.288L62.175,-16.312L61.688,-16.838C62.188,-18.113 62.987,-19.081 64.088,-19.744C65.188,-20.406 66.463,-20.738 67.912,-20.738C69.412,-20.738 70.737,-20.413 71.888,-19.762C73.037,-19.112 73.938,-18.213 74.588,-17.062C75.237,-15.913 75.562,-14.588 75.562,-13.088L75.562,0L71.362,0L71.362,-11.963C71.362,-12.987 71.175,-13.856 70.8,-14.569C70.425,-15.281 69.894,-15.831 69.206,-16.219C68.519,-16.606 67.737,-16.8 66.862,-16.8C65.987,-16.8 65.206,-16.606 64.519,-16.219C63.831,-15.831 63.3,-15.275 62.925,-14.55C62.55,-13.825 62.362,-12.962 62.362,-11.963L62.362,0L58.125,0Z" style="fill:rgb(37,25,56);fill-rule:nonzero;"/>
                <path d="M89.888,8.25C88.412,8.25 87.05,8.012 85.8,7.538C84.55,7.062 83.475,6.406 82.575,5.569C81.675,4.731 81,3.75 80.55,2.625L84.45,1.012C84.8,1.963 85.444,2.75 86.381,3.375C87.319,4 88.475,4.312 89.85,4.312C90.925,4.312 91.888,4.106 92.737,3.694C93.588,3.281 94.263,2.681 94.763,1.894C95.263,1.106 95.513,0.162 95.513,-0.938L95.513,-5.512L96.263,-4.65C95.562,-3.35 94.594,-2.362 93.356,-1.688C92.119,-1.012 90.725,-0.675 89.175,-0.675C87.3,-0.675 85.612,-1.112 84.112,-1.988C82.612,-2.862 81.431,-4.062 80.569,-5.587C79.706,-7.112 79.275,-8.825 79.275,-10.725C79.275,-12.65 79.706,-14.363 80.569,-15.862C81.431,-17.363 82.6,-18.55 84.075,-19.425C85.55,-20.3 87.237,-20.738 89.138,-20.738C90.688,-20.738 92.069,-20.406 93.281,-19.744C94.494,-19.081 95.487,-18.125 96.263,-16.875L95.7,-15.825L95.7,-20.288L99.713,-20.288L99.713,-0.938C99.713,0.812 99.294,2.381 98.456,3.769C97.619,5.156 96.463,6.25 94.987,7.05C93.513,7.85 91.812,8.25 89.888,8.25ZM89.662,-4.612C90.787,-4.612 91.787,-4.881 92.662,-5.419C93.538,-5.956 94.231,-6.681 94.744,-7.594C95.256,-8.506 95.513,-9.538 95.513,-10.688C95.513,-11.838 95.25,-12.875 94.725,-13.8C94.2,-14.725 93.5,-15.456 92.625,-15.994C91.75,-16.531 90.763,-16.8 89.662,-16.8C88.513,-16.8 87.487,-16.531 86.588,-15.994C85.688,-15.456 84.981,-14.731 84.469,-13.819C83.956,-12.906 83.7,-11.863 83.7,-10.688C83.7,-9.562 83.956,-8.538 84.469,-7.613C84.981,-6.688 85.688,-5.956 86.588,-5.419C87.487,-4.881 88.513,-4.612 89.662,-4.612Z" style="fill:rgb(37,25,56);fill-rule:nonzero;"/>
            </g>
        </g>
        <g>
            <g transform="matrix(1,0,0,1,26.674,200.034)">
                <path d="M8.475,0L0.412,-20.475L6.488,-20.475L12.075,-4.988L9.75,-4.988L15.338,-20.475L21.413,-20.475L13.35,0L8.475,0Z" style="fill:rgb(37,25,56);fill-rule:nonzero;"/>
            </g>
            <g transform="matrix(1,0,0,1,48.124,200.034)">
                <path d="M11.925,0.45C9.75,0.45 7.862,-0.031 6.263,-0.994C4.663,-1.956 3.425,-3.25 2.55,-4.875C1.675,-6.5 1.238,-8.3 1.238,-10.275C1.238,-12.325 1.694,-14.15 2.606,-15.75C3.519,-17.35 4.75,-18.612 6.3,-19.538C7.85,-20.462 9.6,-20.925 11.55,-20.925C13.175,-20.925 14.612,-20.669 15.862,-20.156C17.113,-19.644 18.169,-18.925 19.031,-18C19.894,-17.075 20.55,-16.006 21,-14.794C21.45,-13.581 21.675,-12.263 21.675,-10.837C21.675,-10.438 21.656,-10.044 21.619,-9.656C21.581,-9.269 21.512,-8.938 21.413,-8.662L6.075,-8.662L6.075,-12.788L18.225,-12.788L15.563,-10.837C15.812,-11.913 15.8,-12.869 15.525,-13.706C15.25,-14.544 14.769,-15.206 14.081,-15.694C13.394,-16.181 12.55,-16.425 11.55,-16.425C10.575,-16.425 9.737,-16.188 9.037,-15.712C8.338,-15.238 7.812,-14.537 7.463,-13.612C7.112,-12.688 6.975,-11.562 7.05,-10.238C6.95,-9.088 7.087,-8.075 7.463,-7.2C7.837,-6.325 8.413,-5.644 9.188,-5.156C9.963,-4.669 10.9,-4.425 12,-4.425C13,-4.425 13.856,-4.625 14.569,-5.025C15.281,-5.425 15.837,-5.975 16.238,-6.675L20.738,-4.537C20.338,-3.538 19.706,-2.663 18.844,-1.913C17.981,-1.163 16.962,-0.581 15.787,-0.169C14.612,0.244 13.325,0.45 11.925,0.45Z" style="fill:rgb(37,25,56);fill-rule:nonzero;"/>
                <path d="M24.975,0L24.975,-20.475L30.225,-20.475L30.225,-15.563L29.85,-16.275C30.3,-18 31.044,-19.169 32.081,-19.781C33.119,-20.394 34.35,-20.7 35.775,-20.7L36.975,-20.7L36.975,-15.825L35.212,-15.825C33.837,-15.825 32.725,-15.406 31.875,-14.569C31.025,-13.731 30.6,-12.55 30.6,-11.025L30.6,0L24.975,0Z" style="fill:rgb(37,25,56);fill-rule:nonzero;"/>
                <path d="M49.5,8.25C47.925,8.25 46.462,7.987 45.112,7.463C43.762,6.937 42.606,6.206 41.644,5.269C40.681,4.331 39.987,3.225 39.562,1.95L44.775,0.113C45.05,1.062 45.612,1.813 46.462,2.362C47.312,2.913 48.325,3.188 49.5,3.188C50.425,3.188 51.225,3.019 51.9,2.681C52.575,2.344 53.094,1.85 53.456,1.2C53.819,0.55 54,-0.213 54,-1.088L54,-5.775L55.087,-4.425C54.387,-3.275 53.487,-2.419 52.387,-1.856C51.287,-1.294 50,-1.012 48.525,-1.012C46.625,-1.012 44.925,-1.444 43.425,-2.306C41.925,-3.169 40.75,-4.356 39.9,-5.869C39.05,-7.381 38.625,-9.1 38.625,-11.025C38.625,-12.95 39.05,-14.656 39.9,-16.144C40.75,-17.631 41.912,-18.8 43.387,-19.65C44.862,-20.5 46.537,-20.925 48.412,-20.925C49.887,-20.925 51.175,-20.631 52.275,-20.044C53.375,-19.456 54.312,-18.563 55.087,-17.363L54.375,-16.012L54.375,-20.475L59.625,-20.475L59.625,-1.088C59.625,0.713 59.188,2.319 58.312,3.731C57.438,5.144 56.244,6.25 54.731,7.05C53.219,7.85 51.475,8.25 49.5,8.25ZM49.312,-6.112C50.262,-6.112 51.087,-6.312 51.787,-6.712C52.487,-7.112 53.031,-7.675 53.419,-8.4C53.806,-9.125 54,-9.975 54,-10.95C54,-11.925 53.8,-12.781 53.4,-13.519C53,-14.256 52.45,-14.831 51.75,-15.244C51.05,-15.656 50.237,-15.862 49.312,-15.862C48.362,-15.862 47.519,-15.656 46.781,-15.244C46.044,-14.831 45.469,-14.256 45.056,-13.519C44.644,-12.781 44.438,-11.925 44.437,-10.95C44.438,-10 44.644,-9.162 45.056,-8.438C45.469,-7.713 46.044,-7.144 46.781,-6.731C47.519,-6.319 48.362,-6.112 49.312,-6.112Z" style="fill:rgb(37,25,56);fill-rule:nonzero;"/>
                <path d="M73.612,0.45C71.438,0.45 69.55,-0.031 67.95,-0.994C66.35,-1.956 65.112,-3.25 64.237,-4.875C63.362,-6.5 62.925,-8.3 62.925,-10.275C62.925,-12.325 63.381,-14.15 64.294,-15.75C65.206,-17.35 66.438,-18.612 67.987,-19.538C69.537,-20.462 71.287,-20.925 73.237,-20.925C74.862,-20.925 76.3,-20.669 77.55,-20.156C78.8,-19.644 79.856,-18.925 80.719,-18C81.581,-17.075 82.237,-16.006 82.688,-14.794C83.138,-13.581 83.362,-12.263 83.362,-10.837C83.362,-10.438 83.344,-10.044 83.306,-9.656C83.269,-9.269 83.2,-8.938 83.1,-8.662L67.763,-8.662L67.763,-12.788L79.912,-12.788L77.25,-10.837C77.5,-11.913 77.487,-12.869 77.213,-13.706C76.938,-14.544 76.456,-15.206 75.769,-15.694C75.081,-16.181 74.237,-16.425 73.237,-16.425C72.263,-16.425 71.425,-16.188 70.725,-15.712C70.025,-15.238 69.5,-14.537 69.15,-13.612C68.8,-12.688 68.662,-11.562 68.737,-10.238C68.638,-9.088 68.775,-8.075 69.15,-7.2C69.525,-6.325 70.1,-5.644 70.875,-5.156C71.65,-4.669 72.588,-4.425 73.688,-4.425C74.688,-4.425 75.544,-4.625 76.256,-5.025C76.969,-5.425 77.525,-5.975 77.925,-6.675L82.425,-4.537C82.025,-3.538 81.394,-2.663 80.531,-1.913C79.669,-1.163 78.65,-0.581 77.475,-0.169C76.3,0.244 75.013,0.45 73.612,0.45Z" style="fill:rgb(37,25,56);fill-rule:nonzero;"/>
                <rect x="86.662" y="-28.387" width="5.625" height="28.387" style="fill:rgb(37,25,56);fill-rule:nonzero;"/>
                <path d="M96.412,0L96.412,-20.475L102.037,-20.475L102.037,0L96.412,0ZM96.412,-22.312L96.412,-27.938L102.037,-27.938L102.037,-22.312L96.412,-22.312Z" style="fill:rgb(37,25,56);fill-rule:nonzero;"/>
                <path d="M103.688,8.325C103.312,8.325 102.944,8.306 102.581,8.269C102.219,8.231 101.912,8.188 101.662,8.137L101.662,3.337C102.087,3.413 102.512,3.45 102.938,3.45C104.012,3.45 104.819,3.225 105.356,2.775C105.894,2.325 106.162,1.65 106.162,0.75L106.162,-20.475L111.787,-20.475L111.787,0.75C111.787,2.35 111.469,3.719 110.831,4.856C110.194,5.994 109.269,6.856 108.056,7.444C106.844,8.031 105.387,8.325 103.688,8.325ZM106.162,-22.312L106.162,-27.938L111.787,-27.938L111.787,-22.312L106.162,-22.312Z" style="fill:rgb(37,25,56);fill-rule:nonzero;"/>
                <path d="M115.912,0L115.912,-28.387L121.537,-28.387L121.537,-10.2L119.438,-10.875L128.475,-20.475L135.412,-20.475L127.987,-12.225L135.375,0L129,0L122.812,-10.388L126.075,-11.213L119.812,-4.388L121.537,-7.65L121.537,0L115.912,0Z" style="fill:rgb(37,25,56);fill-rule:nonzero;"/>
            </g>
            <g transform="matrix(1,0,0,1,183.574,200.034)">
                <path d="M11.925,0.45C9.75,0.45 7.862,-0.031 6.263,-0.994C4.663,-1.956 3.425,-3.25 2.55,-4.875C1.675,-6.5 1.238,-8.3 1.238,-10.275C1.238,-12.325 1.694,-14.15 2.606,-15.75C3.519,-17.35 4.75,-18.612 6.3,-19.538C7.85,-20.462 9.6,-20.925 11.55,-20.925C13.175,-20.925 14.612,-20.669 15.862,-20.156C17.113,-19.644 18.169,-18.925 19.031,-18C19.894,-17.075 20.55,-16.006 21,-14.794C21.45,-13.581 21.675,-12.263 21.675,-10.837C21.675,-10.438 21.656,-10.044 21.619,-9.656C21.581,-9.269 21.512,-8.938 21.413,-8.662L6.075,-8.662L6.075,-12.788L18.225,-12.788L15.563,-10.837C15.812,-11.913 15.8,-12.869 15.525,-13.706C15.25,-14.544 14.769,-15.206 14.081,-15.694C13.394,-16.181 12.55,-16.425 11.55,-16.425C10.575,-16.425 9.737,-16.188 9.037,-15.712C8.338,-15.238 7.812,-14.537 7.463,-13.612C7.112,-12.688 6.975,-11.562 7.05,-10.238C6.95,-9.088 7.087,-8.075 7.463,-7.2C7.837,-6.325 8.413,-5.644 9.188,-5.156C9.963,-4.669 10.9,-4.425 12,-4.425C13,-4.425 13.856,-4.625 14.569,-5.025C15.281,-5.425 15.837,-5.975 16.238,-6.675L20.738,-4.537C20.338,-3.538 19.706,-2.663 18.844,-1.913C17.981,-1.163 16.962,-0.581 15.787,-0.169C14.612,0.244 13.325,0.45 11.925,0.45Z" style="fill:rgb(37,25,56);fill-rule:nonzero;"/>
                <path d="M24.975,0L24.975,-20.475L30.225,-20.475L30.225,-15.563L29.85,-16.275C30.3,-18 31.044,-19.169 32.081,-19.781C33.119,-20.394 34.35,-20.7 35.775,-20.7L36.975,-20.7L36.975,-15.825L35.212,-15.825C33.837,-15.825 32.725,-15.406 31.875,-14.569C31.025,-13.731 30.6,-12.55 30.6,-11.025L30.6,0L24.975,0Z" style="fill:rgb(37,25,56);fill-rule:nonzero;"/>
            </g>
        </g>
    </g>
    <g transform="matrix(2.52873,1.459963,-1.100153,1.905521,-273.719288,-446.502993)">
        <path d="M281,64.45L281,64.767C281,76.486 273.831,86 265,86C256.169,86 249,76.486 249,64.767L249,64.45C249,63.098 249.827,62 250.846,62L279.154,62C280.173,62 281,63.098 281,64.45Z" style="fill:rgb(88,58,133);"/>
    </g>
    <g transform="matrix(2.478338,1.025317,-1.025317,2.478338,-138.639834,-233.049912)">
        <circle cx="197" cy="22" r="8" style="fill:rgb(250,212,174);"/>
    </g>
    <g transform="matrix(1.128286,1.619624,-1.769338,1.232581,114.935275,-419.196312)">
        <path d="M288,18.927L288,34.073C288,34.584 287.546,35 286.987,35L263.013,35C262.454,35 262,34.584 262,34.073L262,18.927C262,18.416 262.454,18 263.013,18L286.987,18C287.546,18 288,18.416 288,18.927Z" style="fill:rgb(242,97,87);"/>
    </g>
</svg>
